Coordinates
version=1
nRows=11
nColumns=63
inDegrees=yes

Units are S.I. units (second, meters, Newtons, ...)
If the header above contains a line with 'inDegrees', this indicates whether rotational values are in degrees (yes) or radians (no).

endheader
time	pelvis_tilt	pelvis_list	pelvis_rotation	pelvis_tx	pelvis_ty	pelvis_tz	hip_flexion_r	hip_adduction_r	hip_rotation_r	knee_angle_r	knee_angle_r_beta	ankle_angle_r	subtalar_angle_r	mtp_angle_r	hip_flexion_l	hip_adduction_l	hip_rotation_l	knee_angle_l	knee_angle_l_beta	ankle_angle_l	subtalar_angle_l	mtp_angle_l	L5_S1_Flex_Ext	L5_S1_Lat_Bending	L5_S1_axial_rotation	L4_L5_Flex_Ext	L4_L5_Lat_Bending	L4_L5_axial_rotation	L3_L4_Flex_Ext	L3_L4_Lat_Bending	L3_L4_axial_rotation	L2_L3_Flex_Ext	L2_L3_Lat_Bending	L2_L3_axial_rotation	L1_L2_Flex_Ext	L1_L2_Lat_Bending	L1_L2_axial_rotation	L1_T12_Flex_Ext	L1_T12_Lat_Bending	L1_T12_axial_rotation	Abs_r3	Abs_r2	Abs_r1	Abs_t1	Abs_t2	neck_flexion	neck_bending	neck_rotation	arm_flex_r	arm_add_r	arm_rot_r	elbow_flex_r	pro_sup_r	wrist_flex_r	wrist_dev_r	arm_flex_l	arm_add_l	arm_rot_l	elbow_flex_l	pro_sup_l	wrist_flex_l	wrist_dev_l
      0.01666667	     -0.33315936	      4.10223252	    -74.27432913	      0.03441694	      0.95240791	     -1.35869863	      0.49276232	      5.60870043	    -35.92777672	     20.19465611	      0.35246324	     19.37084575	    -10.98615345	      0.00000000	     29.96129142	     16.20431392	     29.27030661	     16.51516336	      0.28824398	    -18.34396882	    -18.62203430	      0.00000000	     -0.02149295	      0.42379958	     -1.69659312	     -0.03991455	      0.56365344	     -1.80263019	     -0.03531076	      1.03042630	     -1.80263019	     -0.02456429	      1.03042630	     -1.48451898	     -0.01995835	      0.86421211	     -1.37848191	     -0.01228107	      0.65646555	     -1.27244484	     -0.15352198	      4.79410562	     -9.43594194	      0.00000000	      0.00000000	    -10.48983194	      4.89742571	    -13.54513247	    -20.24885899	    -20.93048315	    -28.92068044	     49.68760950	     89.99559364	      0.00000000	      0.00000000	     -6.86763388	    -23.79114747	     20.00730385	     24.22499177	     89.99559364	      0.00000000	      0.00000000
      0.03333333	     -0.90982597	      3.18533366	    -76.54946292	      0.02934133	      0.95275285	     -1.34895365	     -1.14762294	      6.90319837	    -33.38979163	     19.59341776	      0.34196965	     18.79326426	    -10.65865482	      0.00000000	     29.86309153	     14.36311410	     24.84654450	     19.24330128	      0.33585897	    -16.52855606	    -16.80442187	      0.00000000	     -0.02443789	      0.40225100	     -1.81016773	     -0.04538360	      0.53499383	     -1.92330322	     -0.04014901	      0.97803309	     -1.92330322	     -0.02793006	      0.97803309	     -1.58389677	     -0.02269302	      0.82027024	     -1.47076128	     -0.01396381	      0.62308680	     -1.35762580	     -0.17455739	      4.55034378	    -10.06760988	      0.00000000	      0.00000000	    -12.67568586	      3.78777676	     -8.78058483	    -19.09893344	    -22.49724053	    -25.31202822	     51.54662144	     89.99559364	      0.00000000	      0.00000000	     -7.33319019	    -24.15548613	     19.15445345	     23.16622658	     89.99559364	      0.00000000	      0.00000000
      0.05000000	     -1.46791419	      2.41760578	    -78.40048770	      0.02431494	      0.95322184	     -1.33932157	     -2.73365190	      8.12520595	    -30.89904824	     18.89426690	      0.32976717	     18.20645469	    -10.80069559	      0.00000000	     30.19747137	     12.01450683	     17.33100889	     22.13327044	      0.38629844	    -13.41112681	     -9.68436924	      0.00000000	     -0.02649716	      0.36552515	     -1.85179266	     -0.04920787	      0.48614844	     -1.96752970	     -0.04353218	      0.88873784	     -1.96752970	     -0.03028360	      0.88873784	     -1.62031857	     -0.02460526	      0.74537888	     -1.50458153	     -0.01514048	      0.56619845	     -1.38884449	     -0.18926655	      4.13489355	    -10.29911522	      0.00000000	      0.00000000	    -14.30919221	      3.02637255	     -5.35085391	    -18.22228725	    -23.78322322	    -22.44245858	     53.30823501	     89.99559364	      0.00000000	      0.00000000	     -7.36972805	    -24.64325456	     18.43381667	     22.17746995	     89.99559364	      0.00000000	      0.00000000
      0.06666667	     -2.01065848	      1.92988518	    -79.72595068	      0.01983950	      0.95385910	     -1.32933649	     -4.09034633	      9.18841966	    -28.86291739	     18.22458076	      0.31807894	     17.61491486	    -11.00117059	      0.00000000	     30.64011692	      9.51308284	      9.80746405	     24.80117477	      0.43286216	    -11.07327150	     -1.86511213	      0.00000000	     -0.02741179	      0.31314215	     -1.71006003	     -0.05090644	      0.41647905	     -1.81693878	     -0.04503483	      0.76137381	     -1.81693878	     -0.03132894	      0.76137381	     -1.49630252	     -0.02545459	      0.63855946	     -1.38942377	     -0.01566310	      0.48505718	     -1.28254502	     -0.19579968	      3.54232659	     -9.51084085	      0.00000000	      0.00000000	    -15.25459992	      2.84834628	     -4.19688885	    -18.24170370	    -24.51060600	    -21.57713950	     55.06785644	     89.99559364	      0.00000000	      0.00000000	     -6.55266470	    -25.15348578	     17.91847785	     21.34433596	     89.99559364	      0.00000000	      0.00000000
      0.08333333	     -2.52978741	      1.80018246	    -80.55684451	      0.01611409	      0.95462214	     -1.31851091	     -5.09009727	     10.07187977	    -27.46321772	     17.68379936	      0.30864052	     17.07309044	    -11.11900316	      0.00000000	     30.96105331	      7.58672382	      5.10013578	     26.86375690	      0.46886101	     -9.85021185	      2.53403934	      0.00000000	     -0.02719762	      0.24400040	     -1.37015991	     -0.05050869	      0.32452053	     -1.45579490	     -0.04468296	      0.59326256	     -1.45579490	     -0.03108416	      0.59326256	     -1.19888992	     -0.02525571	      0.49756561	     -1.11325492	     -0.01554072	      0.37795661	     -1.02761993	     -0.19426985	      2.76018128	     -7.62041836	      0.00000000	      0.00000000	    -15.58587881	      3.21435482	     -5.18877744	    -19.36164908	    -24.63618154	    -22.94661969	     56.93331918	     89.99559364	      0.00000000	      0.00000000	     -4.99505504	    -25.61380318	     17.32288149	     20.95102959	     89.99559364	      0.00000000	      0.00000000
      0.10000000	     -3.04192541	      2.00138947	    -80.97819621	      0.01302354	      0.95542417	     -1.30676677	     -5.61733993	     10.76836433	    -26.71487073	     17.53859480	      0.30610623	     16.51860111	    -11.02818998	      0.00000000	     31.21209413	      6.40648847	      3.27526751	     28.24722820	      0.49300714	     -8.84968394	      3.96707839	      0.00000000	     -0.02628426	      0.15891980	     -0.96274523	     -0.04881251	      0.21136334	     -1.02291681	     -0.04318242	      0.38639760	     -1.02291681	     -0.03004029	      0.38639760	     -0.84240208	     -0.02440757	      0.32406926	     -0.78223050	     -0.01501883	      0.24616677	     -0.72205892	     -0.18774587	      1.79773257	     -5.35450016	      0.00000000	      0.00000000	    -15.38581624	      3.76397640	     -7.62707836	    -21.07460088	    -24.47752796	    -25.31610840	     58.93012684	     89.99559364	      0.00000000	      0.00000000	     -3.43976082	    -26.00072753	     16.02072758	     21.35258724	     89.99559364	      0.00000000	      0.00000000
      0.11666667	     -3.52329399	      2.40061739	    -81.17187810	      0.01031774	      0.95626791	     -1.29406188	     -5.69545197	     11.17959499	    -26.72542011	     18.10018903	      0.31590789	     16.08483027	    -10.44605817	      0.00000000	     31.35965166	      5.98220696	      4.13261620	     29.07404649	      0.50743784	     -7.82713809	      2.81611286	      0.00000000	     -0.02447410	      0.05835883	     -0.66164870	     -0.04545085	      0.07761724	     -0.70300175	     -0.04020850	      0.14189366	     -0.70300175	     -0.02797145	      0.14189366	     -0.57894262	     -0.02272665	      0.11900532	     -0.53758957	     -0.01398450	      0.09039783	     -0.49623653	     -0.17481605	      0.66016674	     -3.67989160	      0.00000000	      0.00000000	    -14.86690790	      4.32285101	     -9.69968223	    -22.59473527	    -24.35416438	    -27.54608141	     61.17003086	     89.99559364	      0.00000000	      0.00000000	     -2.69923334	    -26.39475051	     13.89568663	     22.43669519	     89.99559364	      0.00000000	      0.00000000
      0.13333333	     -4.09547632	      2.83832540	    -81.18879235	      0.00772680	      0.95704656	     -1.28092298	     -5.27857325	     11.34067454	    -27.65005322	     19.74599841	      0.34463269	     15.65412633	     -9.37991355	      0.00000000	     31.34681468	      6.11887461	      7.39480154	     29.58485641	      0.51635315	     -6.70020470	     -0.74340210	      0.00000000	     -0.02462642	     -0.04538204	     -0.61970178	     -0.04573372	     -0.06035812	     -0.65843314	     -0.04045874	     -0.11034190	     -0.65843314	     -0.02814553	     -0.11034190	     -0.54223906	     -0.02286809	     -0.09254306	     -0.50350770	     -0.01407153	     -0.07029678	     -0.46477634	     -0.17590404	     -0.51337074	     -3.44659541	      0.00000000	      0.00000000	    -14.21353884	      4.66911637	    -10.92851083	    -23.13791296	    -24.96687692	    -27.92555357	     63.44179092	     89.99559364	      0.00000000	      0.00000000	     -3.68237661	    -26.63985843	      8.40829836	     24.46634256	     89.99559364	      0.00000000	      0.00000000
      0.15000000	     -4.65721428	      3.15221240	    -81.21950704	      0.00461116	      0.95787571	     -1.26787054	     -4.48275808	     11.15106221	    -28.80611832	     22.50987636	      0.39287146	     15.10485943	     -8.08577145	      0.00000000	     31.09576594	      6.34908764	     11.38008161	     30.01943350	      0.52393795	     -5.15095628	     -4.81207134	      0.00000000	     -0.02321845	     -0.16144924	     -0.79331491	     -0.04311899	     -0.21472749	     -0.84289709	     -0.03814560	     -0.39254768	     -0.84289709	     -0.02653637	     -0.39254768	     -0.69415054	     -0.02156066	     -0.32922729	     -0.64456836	     -0.01326702	     -0.25008487	     -0.59498618	     -0.16584710	     -1.82634609	     -4.41217952	      0.00000000	      0.00000000	    -13.99144977	      5.14616643	     -9.85680570	    -22.60788057	    -26.08196809	    -27.09853277	     65.78847089	     89.99559364	      0.00000000	      0.00000000	     -5.94289876	    -26.58872342	     -0.09367784	     26.76647509	     89.99559364	      0.00000000	      0.00000000
      0.16666667	     -5.12675825	      3.26535418	    -80.92576031	      0.00119237	      0.95868378	     -1.25591095	     -3.30787967	     10.66352172	    -30.02342558	     26.19999789	      0.45727623	     14.10323127	     -7.62635614	      0.00000000	     30.54017761	      6.95657253	     16.46363155	     30.42398412	      0.53099869	     -3.93393498	    -10.56639690	      0.00000000	     -0.02333031	     -0.29374845	     -1.10563052	     -0.04332671	     -0.39068544	     -1.17473242	     -0.03832936	     -0.71421998	     -1.17473242	     -0.02666421	     -0.71421998	     -0.96742670	     -0.02166452	     -0.59901184	     -0.89832479	     -0.01333094	     -0.45501635	     -0.82922289	     -0.16664605	     -3.32294122	     -6.14918524	      0.00000000	      0.00000000	    -13.96022417	      4.97705633	     -8.32330880	    -21.46770943	    -27.46288743	    -25.80899764	     68.26430924	     89.99559364	      0.00000000	      0.00000000	     -7.62768722	    -27.88435103	     -1.35853360	     28.05495886	     89.99559364	      0.00000000	      0.00000000
      0.18333333	     -5.54977638	      3.25952271	    -80.42821554	     -0.00247353	      0.95932811	     -1.24531104	     -1.98306581	      9.88535119	    -31.56916077	     30.24580276	      0.52788884	     12.91968275	     -6.74399232	      0.00000000	     30.06258214	      7.37730575	     20.54843886	     31.17097044	      0.54403607	     -2.70952063	    -15.52483293	      0.00000000	     -0.02347775	     -0.43213823	     -1.42081897	     -0.04360053	     -0.57474385	     -1.50962015	     -0.03857160	     -1.05070089	     -1.50962015	     -0.02683272	     -1.05070089	     -1.24321660	     -0.02180144	     -0.88121628	     -1.15441541	     -0.01341519	     -0.66938212	     -1.06561423	     -0.16769922	     -4.88843408	     -7.90216885	      0.00000000	      0.00000000	    -14.33681644	      5.07090500	     -6.13109791	    -20.30555716	    -28.75046301	    -25.40896163	     71.03887720	     89.99559364	      0.00000000	      0.00000000	     -8.47720124	    -29.27120081	     -2.43579191	     28.41758044	     89.99559364	      0.00000000	      0.00000000
